<svg xmlns="http://www.w3.org/2000/svg" baseProfile="tiny-ps" width="223" height="59" fill="#b4bec8" xmlns:v="https://vecta.io/nano"><path d="M.76 58.3V13.18h14.85c1.66 0 3 1.34 3 3s-1.34 3-3 3H6.76v20.05l20.32-26.05h20.43L32.9 35.61 50.09 58.3H28.13l-7.35-10.81a3 3 0 0 1 .96-4.13 3 3 0 0 1 4.13.96l5.59 7.98h6.56L25.58 35.87l10.87-16.69h-6.23L.77 58.3z"/><path d="M28.3 45.47a5.03 5.03 0 1 1-10.06 0 5.03 5.03 0 1 1 10.06 0zm-7.79-29.3a5.03 5.03 0 1 1-10.06 0 5.03 5.03 0 1 1 10.06 0z"/><path fill-rule="evenodd" d="M71.79 13.4l18.66 44.9h-7.39l-3.75-8.94h-15.5l-3.77 8.94h-7.37l.14-.35 18.75-45.11.23.56zm-.23 16.24l-5.65 14.14h11.3l-5.65-14.14z"/><path d="M123.11 45.83c0 8.57-8.64 12.47-16.68 12.47-4.78 0-9.92-1.83-13.96-3.51l2.67-6.39c3.26 1.37 7.79 3.05 11.3 3.05 3.74 0 9.3-1.51 9.3-5.65 0-4.09-4.59-5.56-9.45-7.12-6.51-2.09-13.88-4.46-13.88-13.18 0-8.59 8.38-12.44 16.68-12.44 4.41 0 9.5 1.58 12.95 3.12l-2.51 6.4c-4.33-1.78-7.74-2.65-10.41-2.65-5.91 0-9.3 2.04-9.3 5.59 0 4.19 4.63 5.67 9.53 7.24 6.45 2.06 13.76 4.4 13.76 13.06zm34.9-32.67h7.65v45.13h-7.65V38.97h-21.3v19.32h-7.65V13.16h7.65v18.68h21.3V13.16zm15.69 0h7.66v45.13h-7.66V13.16zm49.15-.13v37.64 7.63h-5.57l-20.7-23.81v23.85h-7.01V19.53l.09-6.49 26.19 32v-32h7.01zm-40.18-7.87a5.03 5.03 0 1 1-10.06 0 5.03 5.03 0 1 1 10.06 0z"/></svg>